<svg id="svg" version="1.1" viewBox="0 0 300 231.796875" width="300" height="231.796875" xmlns="http://www.w3.org/2000/svg"><svg xmlns="http://www.w3.org/2000/svg"><defs><clipPath id="clip-1"><rect x="0" y="0" transform="scale(0.14648,0.14652)" width="2048" height="1582" fill="none"/></clipPath><linearGradient x1="159.93896" y1="37.97132" x2="151.60547" y2="78.00463" gradientUnits="userSpaceOnUse" id="color-1"><stop offset="0" stop-color="#f3592e"/><stop offset="1" stop-color="#dc476f"/></linearGradient><linearGradient x1="146.94873" y1="64.67997" x2="150.51709" y2="85.82169" gradientUnits="userSpaceOnUse" id="color-2"><stop offset="0" stop-color="#ff7c4b"/><stop offset="1" stop-color="#d88dce"/></linearGradient><linearGradient x1="160.90137" y1="58.9274" x2="165.12598" y2="46.75381" gradientUnits="userSpaceOnUse" id="color-3"><stop offset="0" stop-color="#f7724e"/><stop offset="1" stop-color="#ffc079"/></linearGradient><linearGradient x1="175.29932" y1="110.71422" x2="173.81543" y2="94.3006" gradientUnits="userSpaceOnUse" id="color-4"><stop offset="0" stop-color="#0a53c9"/><stop offset="1" stop-color="#6a73da"/></linearGradient><linearGradient x1="164.04053" y1="86.08851" x2="165.33984" y2="95.99907" gradientUnits="userSpaceOnUse" id="color-5"><stop offset="0" stop-color="#bc92d2"/><stop offset="1" stop-color="#6577dc"/></linearGradient><linearGradient x1="170.53711" y1="107.75375" x2="164.48291" y2="109.42864" gradientUnits="userSpaceOnUse" id="color-6"><stop offset="0" stop-color="#5d48aa"/><stop offset="1" stop-color="#7377f9"/></linearGradient><linearGradient x1="170.58838" y1="121.93351" x2="169.35938" y2="127.64623" gradientUnits="userSpaceOnUse" id="color-7"><stop offset="0" stop-color="#a959e5"/><stop offset="1" stop-color="#b68af5"/></linearGradient><linearGradient x1="127.17656" y1="128.24799" x2="127.55244" y2="122.84839" gradientUnits="userSpaceOnUse" id="color-8"><stop offset="0" stop-color="#725dc2"/><stop offset="1" stop-color="#9b49e9"/></linearGradient><linearGradient x1="198.64893" y1="125.68636" x2="198.12598" y2="121.85541" gradientUnits="userSpaceOnUse" id="color-9"><stop offset="0" stop-color="#212061"/><stop offset="1" stop-color="#5240a6"/></linearGradient><linearGradient x1="86.8853" y1="108.14833" x2="89.98608" y2="107.46701" gradientUnits="userSpaceOnUse" id="color-10"><stop offset="0" stop-color="#2d3579"/><stop offset="1" stop-color="#494c99"/></linearGradient><linearGradient x1="73.6853" y1="125.00958" x2="73.97095" y2="120.41379" gradientUnits="userSpaceOnUse" id="color-11"><stop offset="0" stop-color="#1d204e"/><stop offset="1" stop-color="#323c8d"/></linearGradient><linearGradient x1="188.26465" y1="122.26377" x2="192.05713" y2="112.0417" gradientUnits="userSpaceOnUse" id="color-12"><stop offset="0" stop-color="#797ebc"/><stop offset="1" stop-color="#9094f6"/></linearGradient><linearGradient x1="164.7334" y1="107.26144" x2="162.39551" y2="114.99587" gradientUnits="userSpaceOnUse" id="color-13"><stop offset="0" stop-color="#3d3b85"/><stop offset="1" stop-color="#7069c4"/></linearGradient><linearGradient x1="130.41841" y1="111.89386" x2="133.4647" y2="118.85802" gradientUnits="userSpaceOnUse" id="color-14"><stop offset="0" stop-color="#a26cd6"/><stop offset="1" stop-color="#bfacff"/></linearGradient><linearGradient x1="129.33633" y1="78.86075" x2="133.5022" y2="83.86197" gradientUnits="userSpaceOnUse" id="color-15"><stop offset="0" stop-color="#f48274"/><stop offset="1" stop-color="#e189c3"/></linearGradient><linearGradient x1="107.06001" y1="73.16825" x2="110.47852" y2="71.59066" gradientUnits="userSpaceOnUse" id="color-16"><stop offset="0" stop-color="#b15aca"/><stop offset="1" stop-color="#c77dd7"/></linearGradient><linearGradient x1="135.07617" y1="101.00322" x2="131.07539" y2="101.66168" gradientUnits="userSpaceOnUse" id="color-17"><stop offset="0" stop-color="#201949"/><stop offset="1" stop-color="#33317c"/></linearGradient><linearGradient x1="88.01719" y1="119.69085" x2="93.33105" y2="119.61144" gradientUnits="userSpaceOnUse" id="color-18"><stop offset="0" stop-color="#7f82d8"/><stop offset="1" stop-color="#bbbff9"/></linearGradient></defs><g clip-path="url(#clip-1)" fill="none" fill-rule="nonzero" stroke="none" stroke-width="1" stroke-linecap="butt" stroke-linejoin="miter" stroke-miterlimit="10" stroke-dasharray="" stroke-dashoffset="0" font-family="none" font-weight="none" font-size="none" text-anchor="none" style="mix-blend-mode: normal"><path d="M0,0h300v229.71627v2.0806h-300v-2.05863z" fill="#080015"/><path d="M0,229.73825l209.14453,0.00147l90.85547,-0.02344v2.0806h-300z" fill="#28272a"/><path d="M131.6376,31.67178c5.88047,-0.12264 12.01245,0.04103 17.90684,0.08103c3.19043,0.02154 9.04541,-0.07927 12.06445,0.51781c3.82764,0.20835 6.08789,1.49818 9.43506,2.57863c3.04541,0.84177 6.38818,3.16076 8.64404,5.38569c5.75244,5.67038 7.83252,15.26724 5.65137,22.98115c-1.7417,6.35463 -5.97363,11.73739 -11.73633,14.92892c-3.44092,1.9058 -5.25146,2.14141 -8.99854,2.52881c-0.48926,-0.11106 -1.48535,-0.07663 -1.99219,-0.02696l0.75439,1.0044c0.17578,0.58081 0.34277,0.74828 0.74854,1.19825c-0.03223,0.04733 -5.01855,1.38126 -5.51367,1.48602c-2.85791,0.60469 -6.79248,0.29451 -9.33691,1.89848l-0.5625,-0.41817c-0.67529,-0.20088 -1.01953,-0.67385 -1.52051,-1.19371c-0.57715,0.78726 -1.55566,1.88265 -1.42017,2.83153c0.27261,0.43781 0.44941,0.48279 0.91919,0.74726l0.15674,0.29509l-0.10254,0.2318c-1.23853,-1.0277 -4.58936,-4.40546 -5.63745,-5.63228c-1.24819,-0.81202 -4.87822,-5.12664 -6.37017,-6.49251c-0.629,-0.05319 -1.21655,-0.20293 -1.67563,-0.64279c-0.87539,-0.8384 -3.86528,-3.08794 -3.88315,-4.23388c0.39551,0.11165 1.17202,0.78697 1.54834,1.08089c-0.52544,-0.89891 -2.08462,-2.12881 -2.92705,-2.81233l0.11968,0.20572c-0.80186,-0.4718 -0.69946,-0.66682 -0.66592,-1.53188l-1.92026,-1.97613c2.18613,0.20015 5.79756,0.06769 8.13926,0.10637c2.43311,0.00967 5.07993,-0.02711 7.49487,0.05319c8.21646,-0.58081 22.52798,2.72266 26.28384,-6.87903c0.34863,-0.97173 0.56396,-1.9861 0.64014,-3.0157c0.75,-9.57063 -9.79102,-9.88756 -16.54248,-9.79774c-3.37061,0.04498 -7.58525,0.13348 -10.88936,-0.09114c-1.86504,0.02051 -12.00776,0.08205 -12.91758,-0.47473c0.29678,-0.92323 0.57334,-0.51019 0.83804,-1.35034c-0.12612,-1.00836 0.04995,-2.4283 0.08394,-3.52325l-0.10723,-0.01509l-0.21064,0.49129h-0.08203c-0.76992,-1.86492 0.55415,-2.11474 0.21035,-4.03183c-0.32153,-1.79225 -1.04165,-1.65379 -1.22373,-3.57586c0.05874,-0.65803 0.02842,-1.87547 0.03311,-2.57526c1.65806,0.0233 2.9751,0.1537 4.56387,-0.34169z" fill="url(#color-1)"/><path d="M131.6376,31.67178c5.88047,-0.12264 12.01245,0.04103 17.90684,0.08103c3.19043,0.02154 9.04541,-0.07927 12.06445,0.51781c3.82764,0.20835 6.08789,1.49818 9.43506,2.57863c0.26953,0.36572 0.2124,0.42213 0.55957,0.53363l0.47021,0.15018c2.0918,0.65524 8.7334,5.08459 9.01465,7.16622l-0.14209,0.15883l0.05127,0.01744l-0.26367,-0.2296l-0.47754,0.35575c-0.87012,-0.21524 -1.54541,-1.57745 -2.29248,-0.91385c-0.73096,0.64938 -2.73633,3.87989 -3.9873,3.60252c-1.57031,-0.34813 -4.23779,-1.76529 -5.89014,-2.34845c-1.60986,-0.5685 -3.2666,-0.80177 -4.95557,-1.03766c-6.62842,-0.92499 -13.38135,-0.59165 -20.05547,-0.5666c-4.86753,0.01832 -9.74897,-0.00337 -14.62148,-0.01744l-0.10723,-0.01509l-0.21064,0.49129h-0.08203c-0.76992,-1.86492 0.55415,-2.11474 0.21035,-4.03183c-0.32153,-1.79225 -1.04165,-1.65379 -1.22373,-3.57586c0.05874,-0.65803 0.02842,-1.87547 0.03311,-2.57526c1.65806,0.0233 2.9751,0.1537 4.56387,-0.34169z" fill="#f99464"/><path d="M131.6376,31.67178c5.88047,-0.12264 12.01245,0.04103 17.90684,0.08103c3.19043,0.02154 9.04541,-0.07927 12.06445,0.51781c-0.47461,0.0989 -0.60059,0.03253 -0.83936,0.3203c-2.07861,2.49951 -8.69824,6.01441 -11.61328,7.01706c-1.56299,0.53861 -3.19116,0.86345 -4.84087,0.96587c-0.4998,0.03355 -2.24297,0.12645 -2.6373,-0.02066c-2.19521,-0.81876 -4.16279,-2.21965 -6.1812,-3.38494c-0.25093,-0.33715 -2.31709,-0.29055 -2.43589,-0.37612c-0.99727,-0.71825 -1.58452,-2.13745 -2.91914,-2.41321c-0.83862,-0.17333 -0.5064,-0.27795 -0.9022,-0.87415c-0.91187,0.14432 -0.96079,1.56192 -2.04741,1.0255l-0.15161,0.05846c0.05874,-0.65803 0.02842,-1.87547 0.03311,-2.57526c1.65806,0.0233 2.9751,0.1537 4.56387,-0.34169z" fill="#fdb38b"/><path d="M125.32324,66.69259c2.18613,0.20015 5.79756,0.06769 8.13926,0.10637c2.43311,0.00967 5.07993,-0.02711 7.49487,0.05319c0.48545,0.31824 7.777,0.1496 8.85513,0.14139c2.0376,2.10654 3.9917,4.2796 6.04395,6.40108c2.18848,2.26346 4.81201,4.8374 6.75586,7.25222l0.75439,1.0044c0.17578,0.58081 0.34277,0.74828 0.74854,1.19825c-0.03223,0.04733 -5.01855,1.38126 -5.51367,1.48602c-2.85791,0.60469 -6.79248,0.29451 -9.33691,1.89848l-0.5625,-0.41817c-0.67529,-0.20088 -1.01953,-0.67385 -1.52051,-1.19371c-0.57715,0.78726 -1.55566,1.88265 -1.42017,2.83153c0.27261,0.43781 0.44941,0.48279 0.91919,0.74726l0.15674,0.29509l-0.10254,0.2318c-1.23853,-1.0277 -4.58936,-4.40546 -5.63745,-5.63228c-1.24819,-0.81202 -4.87822,-5.12664 -6.37017,-6.49251c-0.629,-0.05319 -1.21655,-0.20293 -1.67563,-0.64279c-0.87539,-0.8384 -3.86528,-3.08794 -3.88315,-4.23388c0.39551,0.11165 1.17202,0.78697 1.54834,1.08089c-0.52544,-0.89891 -2.08462,-2.12881 -2.92705,-2.81233l0.11968,0.20572c-0.80186,-0.4718 -0.69946,-0.66682 -0.66592,-1.53188z" fill="url(#color-2)"/><path d="M125.32324,66.69259c2.18613,0.20015 5.79756,0.06769 8.13926,0.10637c-1.54468,3.16105 8.38066,10.90779 9.98481,13.55499c1.34561,1.3417 4.10933,4.06143 5.25483,5.46188c-0.67529,-0.20088 -1.01953,-0.67385 -1.52051,-1.19371c-0.57715,0.78726 -1.55566,1.88265 -1.42017,2.83153c0.27261,0.43781 0.44941,0.48279 0.91919,0.74726l0.15674,0.29509l-0.10254,0.2318c-1.23853,-1.0277 -4.58936,-4.40546 -5.63745,-5.63228c-1.24819,-0.81202 -4.87822,-5.12664 -6.37017,-6.49251c-0.629,-0.05319 -1.21655,-0.20293 -1.67563,-0.64279c-0.87539,-0.8384 -3.86528,-3.08794 -3.88315,-4.23388c0.39551,0.11165 1.17202,0.78697 1.54834,1.08089c-0.52544,-0.89891 -2.08462,-2.12881 -2.92705,-2.81233l0.11968,0.20572c-0.80186,-0.4718 -0.69946,-0.66682 -0.66592,-1.53188z" fill="#de4a5b"/><path d="M143.44731,80.35395c1.34561,1.3417 4.10933,4.06143 5.25483,5.46188c-0.67529,-0.20088 -1.01953,-0.67385 -1.52051,-1.19371c-0.57715,0.78726 -1.55566,1.88265 -1.42017,2.83153c0.27261,0.43781 0.44941,0.48279 0.91919,0.74726l0.15674,0.29509l-0.10254,0.2318c-1.23853,-1.0277 -4.58936,-4.40546 -5.63745,-5.63228c0.83965,0.23019 2.5752,2.18786 3.28521,2.9042c0.25444,-0.38594 1.63623,-2.1439 1.6585,-2.2954c0.10474,-0.71165 -2.39414,-2.32295 -2.5938,-3.35036z" fill="#a33975"/><path d="M127.24351,68.66873c2.44219,2.58097 5.02061,5.40913 7.48374,7.93428c-0.629,-0.05319 -1.21655,-0.20293 -1.67563,-0.64279c-0.87539,-0.8384 -3.86528,-3.08794 -3.88315,-4.23388c0.39551,0.11165 1.17202,0.78697 1.54834,1.08089c-0.52544,-0.89891 -2.08462,-2.12881 -2.92705,-2.81233l0.11968,0.20572c-0.80186,-0.4718 -0.69946,-0.66682 -0.66592,-1.53188z" fill="#270317"/><path d="M128.36997,45.24347c1.17817,-0.24484 3.74385,-0.27722 5.02383,-0.35868c6.15762,-0.39136 12.33208,-0.10916 18.50903,-0.03033c6.45996,-0.17641 11.56348,0.43825 17.33643,3.57981c2.3291,1.26785 3.5332,1.94082 5.65137,3.74274c4.09131,3.48237 7.74756,11.2209 4.00195,16.17655l-0.25488,0.0737c0.02344,-0.21304 0.02051,-0.2929 0.21094,-0.47766c1.20264,-1.17202 1.47656,-4.20751 1.30225,-5.88591c-0.33398,-0.09773 -0.65039,0.09451 -0.99902,0.23312c-0.82178,-0.14388 -1.68896,-0.67913 -2.42578,-1.01261c-0.94043,-0.42608 -4.48242,-1.59606 -5.45361,-1.49481c-0.2915,1.44045 -0.32373,0.90667 -1.00342,2.16456c-0.69141,1.27928 -1.12061,2.49907 -1.91162,3.776c-1.08691,0.33304 -4.09717,2.43592 -4.85742,2.32808c1.67139,-0.46608 5.31445,-3.18596 6.04688,-4.89162c0.22266,-0.51825 0.62549,-1.53247 0.57422,-2.08676c-0.89648,-0.19297 -2.87549,1.89423 -2.87988,-1.10653c0.34863,-0.97173 0.56396,-1.9861 0.64014,-3.0157c0.75,-9.57063 -9.79102,-9.88756 -16.54248,-9.79774c-3.37061,0.04498 -7.58525,0.13348 -10.88936,-0.09114c-1.86504,0.02051 -12.00776,0.08205 -12.91758,-0.47473c0.29678,-0.92323 0.57334,-0.51019 0.83804,-1.35034z" fill="url(#color-3)"/><path d="M128.36997,45.24347c1.17817,-0.24484 3.74385,-0.27722 5.02383,-0.35868c6.15762,-0.39136 12.33208,-0.10916 18.50903,-0.03033c-1.09424,0.59707 -5.63672,-0.2422 -5.94697,0.24821c1.43086,-0.02037 2.64814,0.02198 3.20186,1.51562c0.94189,0.58711 3.16992,0.09451 4.43408,0.3452c-3.71045,0.13084 -9.82471,-0.19912 -13.14229,0.10506c-1.86504,0.02051 -12.00776,0.08205 -12.91758,-0.47473c0.29678,-0.92323 0.57334,-0.51019 0.83804,-1.35034z" fill="#fdb38b"/><path d="M162.6123,80.64685c0.50684,-0.04967 1.50293,-0.0841 1.99219,0.02696c0.13916,0.91737 2.33789,2.68193 3.06006,3.39974c2.31299,2.30273 5.16357,4.55403 7.2085,7.10746c0.96387,0.9329 1.91895,1.87474 2.86523,2.82537c0.42188,0.35063 1.32275,1.1143 1.61426,1.57554c0.96826,0.92645 4.36963,4.13205 5.06396,5.05719c3.59766,2.95006 7.53223,8.04271 11.24121,11.08552c-4.5835,0.62828 -8.02588,0.19649 -12.51123,0.23736c-0.0835,-0.94492 -0.03369,-1.01832 -0.38232,-1.90624c-0.62842,0.24367 -0.76318,0.32367 -1.41211,0.40777c-0.62842,0.08147 -4.59961,0.12029 -4.85449,0.30198c-2.46533,1.58727 -4.43115,-0.01011 -4.89404,0.53202c0.23145,0.31707 0.24756,0.20308 0.22412,0.46638l-0.25781,0.10051c-0.27979,-0.00659 -0.55811,-0.01875 -0.83789,-0.03619c-2.36279,-0.1559 -4.73437,-2.90655 -6.24316,-4.62319c-1.48096,-1.25159 -4.8501,-5.00253 -6.41455,-6.63698c-0.40576,-0.31326 -3.6665,-3.75696 -4.0415,-4.20956c0.10107,-0.17539 0.05566,-0.12557 0.05566,-0.37949c-0.94922,-0.7666 -1.7666,-4.79989 -1.26855,-5.62115c0.32959,0.22139 0.46582,0.29085 0.82471,0.46184c-0.5625,-0.74448 -1.89404,-2.13482 -2.56201,-2.85717c-0.35889,-0.23649 -1.54102,-1.39855 -1.81787,-1.72851c2.54443,-1.60397 6.479,-1.29378 9.33691,-1.89848c0.49512,-0.10476 5.48145,-1.43869 5.51367,-1.48602c-0.40576,-0.44997 -0.57275,-0.61744 -0.74854,-1.19825z" fill="url(#color-4)"/><path d="M162.6123,80.64685c0.50684,-0.04967 1.50293,-0.0841 1.99219,0.02696c0.13916,0.91737 2.33789,2.68193 3.06006,3.39974c2.31299,2.30273 5.16357,4.55403 7.2085,7.10746c0.96387,0.9329 1.91895,1.87474 2.86523,2.82537l-0.15381,0.25202c-0.81152,0.10037 -2.58398,0.4148 -3.34131,0.39458c-4.9585,-0.13333 -9.52002,0.98594 -14.34375,2.21365c0.68848,0.63546 2.14746,1.79562 2.22217,2.63489c-2.64551,-2.49042 -5.83301,-6.36035 -8.47705,-8.68183c-0.5625,-0.74448 -1.89404,-2.13482 -2.56201,-2.85717c-0.35889,-0.23649 -1.54102,-1.39855 -1.81787,-1.72851c2.54443,-1.60397 6.479,-1.29378 9.33691,-1.89848c0.49512,-0.10476 5.48145,-1.43869 5.51367,-1.48602c-0.40576,-0.44997 -0.57275,-0.61744 -0.74854,-1.19825z" fill="url(#color-5)"/><path d="M163.3667,81.65126c1.13965,1.16162 2.95313,2.8075 3.94775,3.9256l0.30469,0.71957c-0.69434,0.58814 -10.3418,0.52528 -11.92383,0.84777c-1.26562,0.25773 -2.68359,0.85627 -3.90967,1.07928c-0.30908,0.05641 -0.09668,-0.45583 -0.70312,-0.26095c-0.35889,-0.23649 -1.54102,-1.39855 -1.81787,-1.72851c2.54443,-1.60397 6.479,-1.29378 9.33691,-1.89848c0.49512,-0.10476 5.48145,-1.43869 5.51367,-1.48602c-0.40576,-0.44997 -0.57275,-0.61744 -0.74854,-1.19825z" fill="#d395db"/><path d="M162.6123,80.64685c0.50684,-0.04967 1.50293,-0.0841 1.99219,0.02696c0.13916,0.91737 2.33789,2.68193 3.06006,3.39974c2.31299,2.30273 5.16357,4.55403 7.2085,7.10746l-0.08057,0.14916c0.375,0.63678 0.50537,0.74521 1.06055,1.21847l0.15381,0.1304l-0.08936,0.12278c-1.97607,0.55019 -6.99756,-5.72957 -8.60303,-7.22497c-0.99463,-1.1181 -2.80811,-2.76398 -3.94775,-3.9256z" fill="#9774c4"/><path d="M154.03271,96.35849c0.10107,-0.17539 0.05566,-0.12557 0.05566,-0.37949c-0.94922,-0.7666 -1.7666,-4.79989 -1.26855,-5.62115c0.32959,0.22139 0.46582,0.29085 0.82471,0.46184c2.64404,2.32149 5.83154,6.19141 8.47705,8.68183c2.69678,3.26069 2.35547,2.81614 5.38037,5.36166c4.70215,3.95872 6.04834,3.31344 11.92236,4.12004c1.00928,0.13861 2.30859,0.16191 3.34717,0.23795c-1.08252,0.1663 -3.05127,0.0926 -4.15283,-0.03648l-0.15527,0.12293c0.65771,0.18169 4.46631,0.35077 5.82568,0.62081c-0.49658,0.04498 -1.02979,0.10462 -1.5249,0.12733c-0.62842,0.24367 -0.76318,0.32367 -1.41211,0.40777c-0.62842,0.08147 -4.59961,0.12029 -4.85449,0.30198c-2.46533,1.58727 -4.43115,-0.01011 -4.89404,0.53202c0.23145,0.31707 0.24756,0.20308 0.22412,0.46638l-0.25781,0.10051c-0.27979,-0.00659 -0.55811,-0.01875 -0.83789,-0.03619c-2.36279,-0.1559 -4.73437,-2.90655 -6.24316,-4.62319c-1.48096,-1.25159 -4.8501,-5.00253 -6.41455,-6.63698c-0.40576,-0.31326 -3.6665,-3.75696 -4.0415,-4.20956z" fill="#2e369d"/><path d="M164.48877,107.20503c-0.12744,-0.40689 -0.54199,-0.95854 -0.79541,-1.3077c0.49512,0.21011 0.83789,0.34462 1.36377,0.45099c2.60303,2.04016 5.14746,5.09777 8.49463,4.41894c1.1001,-0.22315 1.84277,-0.19736 2.9458,-0.00176c-2.46533,1.58727 -4.43115,-0.01011 -4.89404,0.53202c0.23145,0.31707 0.24756,0.20308 0.22412,0.46638l-0.25781,0.10051c-0.27979,-0.00659 -0.55811,-0.01875 -0.83789,-0.03619c-2.36279,-0.1559 -4.73437,-2.90655 -6.24316,-4.62319z" fill="url(#color-6)"/><path d="M158.07422,100.56805c0.47607,-0.32205 0.22412,-0.25465 0.77344,-0.2403c0.93164,0.48953 4.021,3.2897 4.92627,4.21015c0.23584,0.24 1.05029,1.46316 1.2832,1.81042c-0.52588,-0.10637 -0.86865,-0.24088 -1.36377,-0.45099c0.25342,0.34916 0.66797,0.90081 0.79541,1.3077c-1.48096,-1.25159 -4.8501,-5.00253 -6.41455,-6.63698z" fill="#656ee2"/><path d="M180.95215,99.28203c0.11865,-0.44586 0.23438,-0.89275 0.3457,-1.34082c0.70605,0.73759 2.25732,2.51885 3.11865,2.6979c3.59766,2.95006 7.53223,8.04271 11.24121,11.08552c-4.5835,0.62828 -8.02588,0.19649 -12.51123,0.23736c-0.0835,-0.94492 -0.03369,-1.01832 -0.38232,-1.90624c0.49512,-0.02271 1.02832,-0.08235 1.5249,-0.12733c1.90723,-0.00381 3.81445,-0.04366 5.72021,-0.11971c-2.24268,-2.79446 -4.10596,-5.16459 -6.77344,-7.56754c-0.22266,-0.71708 -1.66406,-2.12031 -2.28369,-2.95915z" fill="#a18fee"/><path d="M179.35254,95.58192c0.96826,0.92645 4.36963,4.13205 5.06396,5.05719c-0.86133,-0.17905 -2.4126,-1.96031 -3.11865,-2.6979c-0.11133,0.44806 -0.22705,0.89495 -0.3457,1.34082c0.61963,0.83884 2.06104,2.24207 2.28369,2.95915c-0.60498,-0.47385 -3.09668,-3.02669 -3.271,-3.73l0.20654,0.00674c0.15381,0.27531 0.14209,0.30125 0.38379,0.4929l0.15381,-0.16747c-0.01758,-1.68851 -0.51416,-1.83679 -1.42529,-2.99138z" fill="#656ee2"/><path d="M99.26426,125.10658c3.29414,-0.30564 7.38984,0.48674 10.74653,-0.05905c0.36958,-0.05993 2.07686,-2.51709 1.95908,-2.97233c-1.90913,-0.75869 -12.47139,0.92953 -13.17554,-0.26447c1.24878,-2.46273 8.10117,-0.90829 10.34312,-1.50521l-0.26001,-0.12923l0.08892,-0.15077c1.46367,-0.58272 14.36367,-0.31356 16.57852,-0.37568c10.52842,-0.29509 21.27349,-0.6973 31.79985,-0.54521c1.08984,0.01568 4.43848,0.07355 5.3291,0.29964c2.45654,0.01377 4.74023,0.20454 7.1792,0.30286c3.99609,0.15033 7.99512,0.25158 11.99561,0.30359c1.28906,-0.09246 8.38477,0.47209 9.40576,0.84895l0.13477,0.37099c-0.95361,1.12323 -3.87012,-0.16396 -5.15186,0.76001c-0.16113,0.51077 -0.19336,0.55751 -0.17432,1.08118c1.39893,0.46184 16.56445,-0.03399 19.38574,0.16821c3.14648,-0.0463 8.28369,-0.32777 11.26904,-0.20323c-0.95215,0.04337 -2.28955,0.09421 -3.22559,0.23341c0.32373,1.14169 4.72412,0.24117 5.89014,0.43488c-2.35986,0.3159 -4.63037,0.27238 -7.00195,0.29876c-3.49365,0.02212 -6.9873,0.06213 -10.47949,0.12c-2.74072,0.06711 -5.13428,0.58711 -7.9248,0.58213c-4.35205,0.64235 -8.84619,0.13597 -13.22168,0.33993c-0.80273,0.03736 -1.60254,0.14271 -2.40381,0.18857c-17.90186,1.02389 -35.8604,1.23708 -53.79126,1.26697c-1.00576,0.00161 -1.92437,-0.00366 -2.93174,0.07663c0.55605,0.02491 1.06729,-0.0337 1.47129,0.29744l0.06812,0.19546c-0.83687,0.68968 -13.40435,0.25553 -15.19336,0.07663c-0.32271,-0.03443 -0.64321,-0.08777 -0.95977,-0.15985c0.85752,-0.29041 5.17412,-0.18344 6.96284,-0.44176c-1.71167,-0.05773 -8.60581,0.24865 -9.43799,-0.10183l-1.97124,0.01597c-1.95615,-0.16015 -4.48491,0.00908 -6.59077,-0.09304c0.10459,-0.08542 0.8064,-0.06198 1.00107,-0.0652l0.07134,-0.13231c-0.32036,-0.35634 -0.74663,-0.39121 -1.23486,-0.51385c0.37104,-0.10154 1.49956,-0.16835 1.94473,-0.20498c-1.45767,-0.12982 -3.66855,-0.00659 -5.27725,-0.05832c1.09687,-0.28909 5.24355,0.26491 6.78252,-0.28586z" fill="#4b1390"/><path d="M179.18408,123.99389c0.79541,-0.0315 1.70068,-0.04528 2.48584,-0.10799c0.1333,0.2907 0.25195,0.49173 0.28564,0.811c-0.52002,0.02169 -1.15723,0.02388 -1.6582,0.12117c4.1001,0.27693 9.36182,-0.27033 13.67871,-0.11209c-4.35205,0.64235 -8.84619,0.13597 -13.22168,0.33993c-0.80273,0.03736 -1.60254,0.14271 -2.40381,0.18857c-17.90186,1.02389 -35.8604,1.23708 -53.79126,1.26697c-1.00576,0.00161 -1.92437,-0.00366 -2.93174,0.07663c0.55605,0.02491 1.06729,-0.0337 1.47129,0.29744l0.06812,0.19546c-0.83687,0.68968 -13.40435,0.25553 -15.19336,0.07663c-0.32271,-0.03443 -0.64321,-0.08777 -0.95977,-0.15985c0.85752,-0.29041 5.17412,-0.18344 6.96284,-0.44176c-1.71167,-0.05773 -8.60581,0.24865 -9.43799,-0.10183c2.12314,-0.42008 10.3333,-0.26286 12.848,-0.26301c9.18765,0.03692 18.37529,-0.00352 27.56221,-0.12132c3.39873,-0.05099 9.04717,0.06462 12.25518,-0.32308l-0.87012,-0.10623c0.45703,-0.22374 1.58643,0.19487 1.94824,-0.4863c-0.24463,-0.16147 -1.58643,-0.18095 -1.98779,-0.2044c1.16455,-0.23546 2.82568,-0.01011 4.18506,-0.24777c3.42041,-0.05172 5.87256,-0.34037 9.22412,-0.55634c2.99414,-0.19282 6.37939,0.0567 9.48047,-0.14183z" fill="#240f60"/><path d="M179.18408,123.99389c0.79541,-0.0315 1.70068,-0.04528 2.48584,-0.10799c0.1333,0.2907 0.25195,0.49173 0.28564,0.811c-0.52002,0.02169 -1.15723,0.02388 -1.6582,0.12117c-7.73437,0.29993 -15.22998,0.96045 -23.09326,0.91869l-0.87012,-0.10623c0.45703,-0.22374 1.58643,0.19487 1.94824,-0.4863c-0.24463,-0.16147 -1.58643,-0.18095 -1.98779,-0.2044c1.16455,-0.23546 2.82568,-0.01011 4.18506,-0.24777c3.42041,-0.05172 5.87256,-0.34037 9.22412,-0.55634c2.99414,-0.19282 6.37939,0.0567 9.48047,-0.14183z" fill="url(#color-7)"/><path d="M115.71489,125.39596c2.53535,0.12117 5.42578,0.00044 7.99116,-0.023c12.22661,-0.1115 24.53906,-1.18155 36.77344,-0.68089c-1.35937,0.23766 -3.02051,0.01231 -4.18506,0.24777c0.40137,0.02344 1.74316,0.04293 1.98779,0.2044c-0.36182,0.68118 -1.49121,0.26257 -1.94824,0.4863l0.87012,0.10623c-3.20801,0.3877 -8.85645,0.27209 -12.25518,0.32308c-9.18691,0.1178 -18.37456,0.15824 -27.56221,0.12132c-2.5147,0.00015 -10.72485,-0.15707 -12.848,0.26301l-1.97124,0.01597c-1.95615,-0.16015 -4.48491,0.00908 -6.59077,-0.09304c0.10459,-0.08542 0.8064,-0.06198 1.00107,-0.0652l0.07134,-0.13231c-0.32036,-0.35634 -0.74663,-0.39121 -1.23486,-0.51385c0.37104,-0.10154 1.49956,-0.16835 1.94473,-0.20498c5.98535,0.01685 11.9707,-0.00132 17.95591,-0.0548z" fill="url(#color-8)"/><path d="M99.26426,125.10658c3.29414,-0.30564 7.38984,0.48674 10.74653,-0.05905c0.36958,-0.05993 2.07686,-2.51709 1.95908,-2.97233c-1.90913,-0.75869 -12.47139,0.92953 -13.17554,-0.26447c1.24878,-2.46273 8.10117,-0.90829 10.34312,-1.50521l-0.26001,-0.12923l0.08892,-0.15077c1.46367,-0.58272 14.36367,-0.31356 16.57852,-0.37568c10.52842,-0.29509 21.27349,-0.6973 31.79985,-0.54521c1.08984,0.01568 4.43848,0.07355 5.3291,0.29964c-4.24219,0.15194 -8.66162,-0.16073 -12.92578,-0.08161l-23.69019,0.56323c-3.74546,0.10169 -8.30508,-0.01626 -11.99854,0.5329c-2.48086,0.36879 -13.31411,-0.08689 -14.61943,1.28426c1.06348,0.38843 3.21738,-0.34183 4.38135,-0.32821c2.64829,0.03077 5.41553,-0.00293 8.04697,0.01319c1.45166,0.00894 5.11011,-0.12293 6.41221,0.04015c-2.56348,0.05202 -3.15278,0.46696 -3.06929,3.19827c0.00425,0.16777 0.01392,0.33553 0.02886,0.50286c1.39233,0.00044 3.85518,-0.07048 5.16152,0.05231c-1.32788,0.0356 -3.43813,0.03839 -4.68662,0.21436c-5.98521,0.05348 -11.97056,0.07165 -17.95591,0.0548c-1.45767,-0.12982 -3.66855,-0.00659 -5.27725,-0.05832c1.09687,-0.28909 5.24355,0.26491 6.78252,-0.28586z" fill="#240f60"/><path d="M205.44873,123.24004c3.14648,-0.0463 8.28369,-0.32777 11.26904,-0.20323c-0.95215,0.04337 -2.28955,0.09421 -3.22559,0.23341c0.32373,1.14169 4.72412,0.24117 5.89014,0.43488c-2.35986,0.3159 -4.63037,0.27238 -7.00195,0.29876c-3.49365,0.02212 -6.9873,0.06213 -10.47949,0.12c-2.74072,0.06711 -5.13428,0.58711 -7.9248,0.58213c-4.31689,-0.15824 -9.57861,0.38901 -13.67871,0.11209c0.50098,-0.09729 1.13818,-0.09949 1.6582,-0.12117c-0.03369,-0.31927 -0.15234,-0.5203 -0.28564,-0.811c0.11279,-0.03634 0.6665,-0.07487 0.82178,-0.08894c1.46338,-0.35224 4.96143,-0.31766 6.54346,-0.31502c3.5625,0.01509 7.125,-0.00396 10.68604,-0.05758c1.5293,-0.01861 4.31104,0.01304 5.72754,-0.18432z" fill="url(#color-9)"/><path d="M181.66992,123.88591c0.11279,-0.03634 0.6665,-0.07487 0.82178,-0.08894c0.33691,0.023 0.84668,0.03077 1.14111,0.14506l-0.17285,0.3833l0.06445,0.15839l0.70459,0.13187l-0.01465,0.05876l-2.25879,0.02256c-0.03369,-0.31927 -0.15234,-0.5203 -0.28564,-0.811z" fill="#8f43de"/><path d="M181.84863,120.01071c1.28906,-0.09246 8.38477,0.47209 9.40576,0.84895l0.13477,0.37099c-0.95361,1.12323 -3.87012,-0.16396 -5.15186,0.76001c-0.16113,0.51077 -0.19336,0.55751 -0.17432,1.08118c1.39893,0.46184 16.56445,-0.03399 19.38574,0.16821c-1.4165,0.19736 -4.19824,0.16572 -5.72754,0.18432c-3.56104,0.05363 -7.12354,0.07267 -10.68604,0.05758c-1.58203,-0.00264 -5.08008,-0.03722 -6.54346,0.31502c-0.15527,0.01407 -0.70898,0.0526 -0.82178,0.08894c-0.78516,0.06271 -1.69043,0.07648 -2.48584,0.10799c-0.20068,-0.03092 -0.28271,-0.06154 -0.46289,-0.143l-0.21973,0.03458l0.27979,-0.09011l-0.1084,0.12967l0.09082,0.02725l0.08057,-0.14564c0.34131,-0.01582 0.68408,-0.03385 1.02539,-0.05392c0.74854,-0.0444 3.44238,-0.11766 3.84229,-0.5685c0.11719,-0.64499 0.0498,-1.07166 -0.00439,-1.71489c-1.60986,-0.00513 -3.4541,-0.26183 -5.0874,-0.36323c-1.30371,-0.08088 -2.89307,-0.08659 -4.14551,-0.27224c1.83105,-0.20484 5.01855,0.19194 6.93018,0.28982c3.05566,0.15648 6.2168,0.15326 9.271,-0.06271c-0.02344,-0.02945 -8.04785,-0.86477 -8.82715,-1.05027z" fill="#240f60"/><path d="M147.14063,121.44046c2.80664,-0.16352 5.92383,0.28777 8.74805,0.38359c1.25244,0.04249 3.63281,-0.16923 4.69775,0.31443c-0.40137,0.28352 -3.91846,0.02725 -4.53516,0.11443c-0.95215,2.36442 -6.08057,2.06287 -8.12695,1.76983c-1.86841,-0.26769 -6.50728,0.14857 -7.96875,-0.66902c-1.77173,-2.61043 4.97461,-1.93731 6.21943,-1.92427z" fill="#8f43de"/><path d="M146.175,121.42947l0.96563,0.01099c0.73389,0.66433 1.44434,0.17304 2.03027,1.0866l-0.14502,0.20689c-0.71484,0.17832 -1.44287,0.29905 -2.17676,0.36103c-0.76025,0.05817 -1.60137,0.11238 -2.18042,-0.38799l0.07104,-0.33949c0.51416,-0.65524 0.58843,-0.41671 1.26328,-0.83078z" fill="#d395db"/><path d="M145.08823,144.10806c1.9396,-0.07136 3.91421,-0.11487 5.84634,-0.04249c4.64648,0.17421 8.00977,3.69688 7.58057,8.39582c-0.20215,2.22273 -1.18799,3.76853 -2.85498,5.17807c-2.91504,2.16412 -7.79443,1.63371 -11.37788,1.55166c0.00088,-1.81394 -0.09785,-14.27617 0.23291,-14.99808z" fill="#fcfbfc"/><path d="M145.89316,145.47818c4.63418,0.09202 10.78506,-0.54081 11.02383,5.96342c0.07324,2.00295 -0.37207,3.18098 -1.73877,4.65938c-2.41553,2.10258 -6.14502,1.70697 -9.25342,1.7187c-0.13125,-3.91798 -0.03384,-8.38102 -0.03164,-12.3415z" fill="#080015"/><path d="M52.55757,143.87275c2.9272,0.03004 5.86831,-0.01363 8.79858,0.03414c6.45425,0.10506 8.33042,6.40943 2.5437,9.64902c1.49502,2.04544 2.28677,3.6601 4.02085,5.72166l-2.48481,0.06007l-1.73101,-0.04542c-1.12148,-1.35972 -2.77983,-4.0733 -3.8436,-5.6528l-3.76157,0.12308c-0.05654,1.82566 -0.15586,3.65131 -0.2978,5.47257l-3.2354,0.03663c-0.07104,-5.13265 -0.07412,-10.26676 -0.00894,-15.39896z" fill="#fcfbfc"/><path d="M56.3521,146.58588c2.06895,-0.063 7.98428,-0.9688 7.51187,2.35313c-0.11558,0.81319 -0.41353,1.02272 -0.98511,1.52382c-1.53091,0.64909 -5.10015,0.46887 -6.9145,0.45715c-0.0167,-1.00367 -0.24976,-3.75095 0.38774,-4.3341z" fill="#080015"/><path d="M93.72363,143.93121l3.1251,0.00249c0.91714,2.21892 2.31826,4.88664 3.3709,7.10204c1.27061,2.67402 2.61313,5.60884 4.0311,8.16857c-1.12075,0.04542 -2.43604,0.1011 -3.53701,-0.02637c-0.56602,-0.94946 -1.09907,-2.19929 -1.69849,-3.25131l-2.27769,-0.01612c-0.62681,0.01026 -1.99438,0.07033 -2.56187,-0.00586c-3.58857,-0.48059 -3.19116,0.77656 -4.80205,3.41834c-1.08164,0.00879 -2.27725,-0.04542 -3.36797,-0.06887c1.10464,-2.36925 6.50449,-13.98049 7.71797,-15.32292z" fill="#fcfbfc"/><path d="M95.12563,147.64963c0.90776,1.79196 1.7168,3.63666 2.5396,5.46964l-2.53857,-0.09084l-2.69824,0.05275c0.64512,-1.72016 1.81641,-3.78611 2.69722,-5.43155z" fill="#080015"/><path d="M70.90796,143.94791c4.30195,0.06037 8.60449,0.0822 12.90688,0.06579l-0.01904,2.54288c-3.1415,-0.09289 -6.34365,0.02198 -9.48984,0.09963l-0.02476,3.45204c2.95005,0.02637 5.94038,0.08645 8.88633,-0.01172l0.02476,2.63885l-7.05703,0.09817l-1.75342,0.00733c-0.02021,1.2425 -0.02461,2.485 -0.01362,3.72604c3.24478,0.04542 6.4897,0.07473 9.73462,0.08645l-0.05493,2.59196c-4.31323,0.04689 -8.97744,0.18022 -13.26138,0.0293c0.26338,-4.75462 0.03809,-10.45137 0.12144,-15.32673z" fill="#fcfbfc"/><path d="M122.58706,143.96608c4.00781,-0.16147 8.33774,0.01817 12.44502,-0.06125c-0.08979,0.81393 -0.11162,1.77452 -0.15,2.60486c-3.05083,-0.01993 -6.5499,-0.06344 -9.57012,0.16117c-0.03574,1.14873 -0.01172,2.32383 -0.00249,3.47402c2.92573,0.03663 5.8519,0.04542 8.77793,0.02491l-0.05054,2.60076c-2.57666,-0.00879 -5.22202,0.05128 -7.80396,0.08352l-0.62388,0.05275c-0.58286,0.70477 -0.3561,2.6535 -0.3375,3.71139l9.95522,0.00586l-0.00205,2.74728c-4.40977,-0.08938 -8.96953,0.07912 -13.29653,-0.08791c-0.01758,-1.59269 -0.13813,-14.72482 0.17183,-15.25874z" fill="#fcfbfc"/><path d="M102.09639,89.71389l0.95435,-0.05099c-0.21943,4.81367 -0.08101,9.8502 -0.15381,14.67764c-0.03237,2.14566 0.12085,4.97733 -0.05654,7.04827c0.01538,1.15503 -0.14766,4.18436 0.54771,4.88957c1.0021,0.43649 2.61943,-0.33099 3.70034,-0.50271c0.50259,-0.07985 1.48433,-0.1622 1.89448,-0.27356c0.75176,-0.02286 1.8208,-0.16601 2.59365,-0.24704l0.9709,0.09949c-0.15923,0.14652 -0.54551,0.01377 -0.99448,0.45832l-0.01392,0.32718c0.66226,0.18491 0.5209,-0.31458 0.91113,0.06506l0.01436,0.12601c-0.76406,0.07224 -3.63823,0.28777 -3.9627,0.47781c-3.1771,1.8598 -3.15527,3.25468 -7.42705,2.31108c-1.48228,-0.32748 -5.69502,-2.25863 -6.96123,-1.54346c-0.1084,0.19458 -0.22573,0.38828 -0.3126,0.5918l-0.34907,-0.23048c-0.31567,-0.70125 -2.58179,-1.45291 -3.33311,-1.65423c-1.17642,-0.08396 -1.38516,-0.1704 -1.87632,-1.22697c-0.48926,-0.88103 -0.39331,-13.30063 -0.28301,-15.14372c0.06914,0.44792 0.13315,0.89671 0.19189,1.34609l0.14663,-1.12675l0.14956,-0.05788l0.13696,0.37187c0.14019,2.09965 0.24961,4.20135 0.32842,6.30423c0.51357,1.98976 -0.69697,8.57062 1.70083,9.09356c0.57407,-0.1455 2.42212,-1.60544 2.91035,-2.07401c1.06069,-1.01774 0.66753,-3.85732 1.50103,-4.93968l0.20918,0.09172c0.42085,0.93759 0.23848,3.25673 0.00059,4.24722l-0.39038,0.18491c0.62432,1.33994 5.14014,3.05043 6.56587,2.74874c0.77285,-0.84206 0.39126,-5.77265 0.47476,-7.04739c0.35098,-5.3681 -0.26294,-11.16903 0.23394,-16.48542c0.05933,-0.80294 -0.0041,-2.02185 -0.02271,-2.85629z" fill="#a18fee"/><path d="M102.09639,89.71389l0.95435,-0.05099c-0.21943,4.81367 -0.08101,9.8502 -0.15381,14.67764c-0.03237,2.14566 0.12085,4.97733 -0.05654,7.04827c-0.29209,-1.0069 -0.1311,-2.69922 -0.29956,-3.87593c-0.07749,1.15268 0.04336,3.79696 -0.29341,4.64781c-0.04702,1.52133 -0.12759,2.82303 -0.32139,4.33967c-2.37729,-0.1052 -6.06797,-1.01378 -7.51406,-3.03417c-1.16455,1.08016 -1.95996,1.84617 -3.41807,2.54024c-0.29751,0.07956 -0.60952,0.13817 -0.8751,0.27722c-1.17642,-0.08396 -1.38516,-0.1704 -1.87632,-1.22697c-0.48926,-0.88103 -0.39331,-13.30063 -0.28301,-15.14372c0.06914,0.44792 0.13315,0.89671 0.19189,1.34609l0.14663,-1.12675l0.14956,-0.05788l0.13696,0.37187c0.14019,2.09965 0.24961,4.20135 0.32842,6.30423c0.51357,1.98976 -0.69697,8.57062 1.70083,9.09356c0.57407,-0.1455 2.42212,-1.60544 2.91035,-2.07401c1.06069,-1.01774 0.66753,-3.85732 1.50103,-4.93968l0.20918,0.09172c0.42085,0.93759 0.23848,3.25673 0.00059,4.24722l-0.39038,0.18491c0.62432,1.33994 5.14014,3.05043 6.56587,2.74874c0.77285,-0.84206 0.39126,-5.77265 0.47476,-7.04739c0.35098,-5.3681 -0.26294,-11.16903 0.23394,-16.48542c0.05933,-0.80294 -0.0041,-2.02185 -0.02271,-2.85629z" fill="#0a0a3d"/><path d="M102.09639,89.71389l0.95435,-0.05099c-0.21943,4.81367 -0.08101,9.8502 -0.15381,14.67764c-0.03237,2.14566 0.12085,4.97733 -0.05654,7.04827c-0.29209,-1.0069 -0.1311,-2.69922 -0.29956,-3.87593c-0.07749,1.15268 0.04336,3.79696 -0.29341,4.64781c-0.09595,-1.44089 0.03047,-3.2853 -0.0019,-4.77557c-0.10151,-4.68253 0.2269,-10.22265 -0.12642,-14.81493c0.05933,-0.80294 -0.0041,-2.02185 -0.02271,-2.85629z" fill="#9774c4"/><path d="M87.95947,99.91295c0.06914,0.44792 0.13315,0.89671 0.19189,1.34609l0.14663,-1.12675l0.14956,-0.05788l0.13696,0.37187c0.14019,2.09965 0.24961,4.20135 0.32842,6.30423c-0.08203,2.27914 -0.09741,6.01045 0.11089,8.22981l0.04907,0.56484l-0.1541,0.06388c-0.22148,-0.17978 -0.46201,-0.36718 -0.67632,-0.55239c-0.48926,-0.88103 -0.39331,-13.30063 -0.28301,-15.14372z" fill="url(#color-10)"/><path d="M89.02383,114.98033c0.73975,0.80338 0.84053,0.92338 1.97007,1.02609c-0.29751,0.07956 -0.60952,0.13817 -0.8751,0.27722c-1.17642,-0.08396 -1.38516,-0.1704 -1.87632,-1.22697c0.21431,0.1852 0.45483,0.3726 0.67632,0.55239l0.1541,-0.06388z" fill="#5a58bb"/><path d="M214.48389,143.80622c1.37402,0.36733 2.10645,2.76354 2.68359,4.00458c1.69922,3.65278 3.47754,7.2616 5.18848,10.90559c-0.0293,0.0967 -0.05859,0.19341 -0.08789,0.28865c-0.42627,0.16117 -0.41309,0.13773 -0.87158,0.0293c-0.99609,-0.73407 -1.56592,-2.60515 -2.29687,-3.85937c-1.27148,-0.04542 -2.83887,0.00293 -4.13232,0.00879c-1.57764,-0.01172 -3.23877,-0.05714 -4.80322,0.06447c-0.79834,1.35239 -0.94043,2.45863 -1.85449,3.53556c-0.38818,0.45861 -1.09717,0.35458 -1.72705,0.34726c2.27197,-4.83667 4.76807,-9.61474 7.11328,-14.41785c0.14355,-0.29568 0.54639,-0.68689 0.78809,-0.90697z" fill="#fcfbfc"/><path d="M214.44873,146.00742c0.62695,0.45392 3.59033,6.78951 3.9917,7.82395l-2.99268,-0.0718l-4.42236,-0.063c1.0415,-2.65497 2.5957,-5.03594 3.42334,-7.68915z" fill="#080015"/><path d="M73.31689,94.57957c-1.09131,-1.01906 -2.76621,-3.23827 -1.54072,-4.67242l0.06489,0.62403l0.196,-0.11663c0.16128,-0.38608 0.24316,-0.81774 0.33794,-1.22844c1.59404,-1.39562 3.5231,-1.13364 4.03901,1.1751c0.27539,1.23166 -0.50098,2.22112 -1.19575,3.16794l-0.0022,16.43296c-0.00308,2.6305 -0.28682,4.93206 -0.02344,7.56637c0.52295,0.51356 1.0396,0.17685 1.78477,0.75839c0.25371,0.37304 0.18179,0.57979 0.14268,1.05041l-0.01553,0.17788c0.22266,0.16572 1.94912,0.29216 2.3666,0.33671l0.06812,0.08454l0.25137,0.05172l0.77578,0.22725l0.05552,0.21143l-0.18384,0.16073c-0.94189,-0.00733 -2.14453,-0.08044 -3.01919,0.19605c-1.56094,1.0466 -2.89746,2.18361 -4.48594,3.21028c-0.97632,0.54623 -1.64883,1.05657 -2.75347,1.09408c0.97939,-0.78433 2.0168,-1.48075 3.04834,-2.19489c0.19702,-0.24191 0.39287,-0.4825 0.60967,-0.70726c0.33325,-0.34535 0.12188,-0.75151 0.00381,-1.16382c-0.72598,-2.53394 -0.34365,-7.77501 -0.36943,-10.73724c-0.04556,-5.23682 -0.16099,-10.46441 -0.15498,-15.70519z" fill="#0a0a3d"/><path d="M76.79473,120.50742l0.62417,0.27619c-1.56094,1.0466 -2.89746,2.18361 -4.48594,3.21028c-0.97632,0.54623 -1.64883,1.05657 -2.75347,1.09408c0.97939,-0.78433 2.0168,-1.48075 3.04834,-2.19489c1.01089,-0.5351 2.23037,-1.64588 3.56689,-2.38566z" fill="url(#color-11)"/><path d="M79.53926,119.93642l0.25137,0.05172l0.77578,0.22725l0.05552,0.21143l-0.18384,0.16073c-0.94189,-0.00733 -2.14453,-0.08044 -3.01919,0.19605l-0.62417,-0.27619c0.98159,-0.58711 1.5936,-0.51092 2.74453,-0.57099z" fill="#5a58bb"/><path d="M73.56284,93.30381l0.15483,0.74198c0.25195,-0.04234 0.59341,-0.1789 0.84521,-0.26623l-0.00688,0.25128c0.03237,0.6403 0.0627,1.28646 0.12729,1.94419c0.55342,5.64239 -0.55166,11.35043 -0.15073,17.06315c0.10854,1.54697 -0.09199,3.11138 0.08101,4.64956l-0.42085,-0.8825c-0.39946,0.19751 -0.2666,0.1096 -0.51855,0.55883z" fill="#474b90"/><path d="M73.71768,94.04579c0.25195,-0.04234 0.59341,-0.1789 0.84521,-0.26623l-0.00688,0.25128c-0.21313,1.1817 -0.18003,4.81894 -0.25547,6.35625c-0.00352,-0.41319 0.0312,-1.72558 -0.11426,-2.01452l-0.20933,0.13495c-0.26514,0.85598 -0.02065,1.43225 -0.17168,2.32149c-0.17959,-0.88675 -0.10298,-5.66466 -0.0876,-6.78321z" fill="#656ee2"/><path d="M73.56284,93.30381c-0.63545,-1.00777 -1.40317,-1.96881 -1.06685,-3.22699c0.12275,-0.46652 0.43872,-0.85847 0.86851,-1.07723c1.66289,-0.85173 3.3917,0.9455 2.62236,2.56354c-0.45176,0.95048 -1.17979,1.05056 -1.42397,2.21643c-0.25181,0.08733 -0.59326,0.22388 -0.84521,0.26623z" fill="#656ee2"/><path d="M73.67417,117.36409c0.25195,-0.44923 0.11909,-0.36132 0.51855,-0.55883l0.42085,0.8825c0.84126,0.81437 1.66597,0.43722 2.11172,1.01642c0.04497,0.84045 -0.67148,1.33188 -1.45503,1.3291c-0.40591,-0.0019 -0.79395,-0.16703 -1.07651,-0.45847c-0.55166,-0.56557 -0.50815,-1.46917 -0.51958,-2.21072z" fill="#5a58bb"/><path d="M106.56885,143.99143l3.23276,0.10066c0.06108,4.10846 0.0085,8.29751 0.04717,12.42209c3.04453,-0.04103 6.0895,-0.02344 9.13315,0.05421c0.00996,0.65642 0.12979,2.30478 -0.19189,2.74435c-4.10361,0.06154 -8.20781,0.06887 -12.31157,0.02198c0.09185,-5.1136 0.12188,-10.22866 0.09038,-15.34328z" fill="#fcfbfc"/><path d="M175.34619,143.91831c2.73926,-0.19839 5.39502,0.06359 7.18066,2.40661l-0.08203,0.31517c-0.71484,0.09524 -1.93213,-0.48074 -2.65283,-0.76982c-5.38184,-2.44779 -11.83008,2.58962 -9.27832,8.33912c2.2002,4.95828 7.32568,4.20956 11.23975,2.53629c-0.00439,-1.33774 0.23877,-2.56559 -0.12305,-3.81542c-0.39844,-0.36337 -0.28857,-0.24616 -0.97852,-0.27986c-1.02393,-0.01612 -2.39795,0.2696 -3.1626,-0.26667c-0.1626,-0.37656 -0.11719,-0.42784 -0.05859,-0.83224c0.55664,-0.41612 4.98486,-0.22271 5.94873,-0.21685l-0.03223,5.99712c-2.93555,2.46449 -7.97461,2.8557 -11.25439,0.8762c-1.70215,-1.01393 -2.92383,-2.67255 -3.38525,-4.59931c-1.17041,-4.83814 2.05518,-8.6052 6.63867,-9.69034z" fill="#fcfbfc"/><path d="M152.60449,103.77526l0.69727,-0.08747c2.69385,2.48427 5.04346,5.00737 7.5498,7.69091c1.09717,1.17525 3.27246,3.65805 4.80615,4.14538c1.47217,0.4677 3.82471,0.31077 5.3877,0.39004c3.03516,0.03941 6.10547,0.08352 9.1333,0.12996c1.64502,0.0252 5.47266,-0.14139 6.93311,0.1307c2.95605,0.07619 5.93555,0.23238 8.88721,0.24909c2.15479,0.01216 3.66357,-1.88368 5.60156,0.13905c0.25928,0.27136 0.51123,0.54696 0.76025,0.82697c1.07813,-0.08454 3.03955,-0.18755 4.00635,-0.3748l0.23877,0.47737c-0.43506,0.52176 -3.14355,0.2548 -4.04443,0.44718c-0.71924,-0.01245 -1.88672,0.84909 -2.95166,0.77187c-1.23193,-0.01978 -2.18994,-1.26287 -3.42334,-1.24924c-5.50195,0.06051 -11.02002,-0.07121 -16.51758,-0.12337c-0.39844,0.00996 -0.79834,0.01656 -1.19678,0.01978c-3.97119,0.02623 -11.04639,0.28 -14.354,-1.85892c-0.94336,-0.60982 -2.40234,-2.51709 -3.26221,-3.41864c-2.69971,-2.8179 -5.45068,-5.58701 -8.25146,-8.30586z" fill="url(#color-12)"/><path d="M152.60449,103.77526l0.69727,-0.08747c2.69385,2.48427 5.04346,5.00737 7.5498,7.69091c1.09717,1.17525 3.27246,3.65805 4.80615,4.14538c1.47217,0.4677 3.82471,0.31077 5.3877,0.39004c3.03516,0.03941 6.10547,0.08352 9.1333,0.12996c1.64502,0.0252 5.47266,-0.14139 6.93311,0.1307l-8.32617,0.28191c-1.87793,0.06007 -2.43311,-0.33685 -4.42383,0.24337l-0.14795,0.04234c-0.14795,0.04278 -0.07471,0.00366 -0.18604,0.18564c1.57031,0.32865 4.10449,0.08689 5.64111,0.41085c-0.39844,0.00996 -0.79834,0.01656 -1.19678,0.01978c-3.97119,0.02623 -11.04639,0.28 -14.354,-1.85892c-0.94336,-0.60982 -2.40234,-2.51709 -3.26221,-3.41864c-2.69971,-2.8179 -5.45068,-5.58701 -8.25146,-8.30586z" fill="url(#color-13)"/><path d="M113.95986,107.03301c0.21943,-0.64968 0.26953,-1.0718 1.06626,-1.03928l0.2562,0.31238c0.19893,0.92528 0.33633,1.27474 0.99067,2.03123c0.59253,0.71327 1.12998,1.30023 1.40713,2.20573l0.0293,0.15985c0.21255,1.2066 -0.14971,3.2705 0.12671,3.68296c1.48096,0.39385 2.58896,0.23561 3.61465,0.47737c0.08716,0.01304 0.48193,0.06608 0.53716,0.0885c-0.1377,0.51619 -0.15879,0.54535 -0.07646,1.06038c-1.65337,-0.02491 -3.30688,-0.02535 -4.96025,-0.00117c-1.49678,0.08777 -2.99253,0.19443 -4.48667,0.32015l-0.01436,-0.12601c-0.39023,-0.37964 -0.24888,0.11985 -0.91113,-0.06506l0.01392,-0.32718c0.44897,-0.44455 0.83525,-0.3118 0.99448,-0.45832l-0.9709,-0.09949l1.16001,-0.09758c-0.41235,-2.13951 -1.51509,-2.29951 -1.27544,-4.48268c-0.08408,-2.05599 1.92407,-2.39709 2.49873,-3.64179z" fill="#d395db"/><path d="M114.45146,113.18574c1.49912,0.55707 2.73486,-1.49437 3.22866,-2.64266l0.0293,0.15985c0.21255,1.2066 -0.14971,3.2705 0.12671,3.68296c1.48096,0.39385 2.58896,0.23561 3.61465,0.47737c0.08716,0.01304 0.48193,0.06608 0.53716,0.0885c-0.1377,0.51619 -0.15879,0.54535 -0.07646,1.06038c-1.65337,-0.02491 -3.30688,-0.02535 -4.96025,-0.00117c-1.49678,0.08777 -2.99253,0.19443 -4.48667,0.32015l-0.01436,-0.12601c-0.39023,-0.37964 -0.24888,0.11985 -0.91113,-0.06506l0.01392,-0.32718c0.44897,-0.44455 0.83525,-0.3118 0.99448,-0.45832l-0.9709,-0.09949l1.16001,-0.09758c-0.41235,-2.13951 -1.51509,-2.29951 -1.27544,-4.48268c0.78062,1.49056 1.32539,2.05408 2.99033,2.51094z" fill="#4b1390"/><path d="M112.73657,115.15748l3.0832,-0.15473c0.8228,0.01026 1.27573,-0.03854 2.02002,0.31326l0.09478,0.23575c-0.36226,0.40938 -0.33926,0.2926 -0.98335,0.4592c-1.49678,0.08777 -2.99253,0.19443 -4.48667,0.32015l-0.01436,-0.12601c-0.39023,-0.37964 -0.24888,0.11985 -0.91113,-0.06506l0.01392,-0.32718c0.44897,-0.44455 0.83525,-0.3118 0.99448,-0.45832l-0.9709,-0.09949z" fill="#9774c4"/><path d="M115.81978,115.00275c0.9917,-0.22418 4.3623,-0.12044 5.63101,-0.13949c0.08716,0.01304 0.48193,0.06608 0.53716,0.0885c-0.1377,0.51619 -0.15879,0.54535 -0.07646,1.06038c-1.65337,-0.02491 -3.30688,-0.02535 -4.96025,-0.00117c0.64409,-0.16659 0.62109,-0.04982 0.98335,-0.4592l-0.09478,-0.23575c-0.74429,-0.3518 -1.19722,-0.30301 -2.02002,-0.31326z" fill="#8f43de"/><path d="M113.95986,107.03301c0.21943,-0.64968 0.26953,-1.0718 1.06626,-1.03928l0.2562,0.31238c0.19893,0.92528 0.33633,1.27474 0.99067,2.03123c-2.84355,0.92733 -4.99219,2.37775 -1.82153,4.84839c-1.66494,-0.45685 -2.20972,-1.02038 -2.99033,-2.51094c-0.08408,-2.05599 1.92407,-2.39709 2.49873,-3.64179z" fill="#d57ae8"/><path d="M126.71118,31.64936l4.92642,0.02242c-1.58877,0.49539 -2.90581,0.36498 -4.56387,0.34169c-0.00469,0.69979 0.02563,1.91723 -0.03311,2.57526c0.18208,1.92207 0.9022,1.78361 1.22373,3.57586c0.3438,1.91709 -0.98027,2.16691 -0.21035,4.03183h0.08203l0.21064,-0.49129l0.10723,0.01509c-0.03398,1.09495 -0.21006,2.51489 -0.08394,3.52325c-0.2647,0.84015 -0.54126,0.42711 -0.83804,1.35034c-0.11704,-0.45451 -0.30381,-1.00733 -0.44385,-1.46565c-1.69072,-0.00073 -3.3813,-0.02271 -5.07158,-0.0655c-0.04028,-2.18844 0.00527,-4.45689 0.02051,-6.65119c1.57104,0.02901 3.08613,-0.01363 4.65645,-0.05465z" fill="#ec89ab"/><path d="M123.72729,40.11859c1.09658,0.02051 2.19287,0.05421 3.28857,0.10081l0.0438,2.96486l-3.25913,0.08674z" fill="#a33975"/><path d="M127.86738,80.06443c-3.56616,-3.65791 -7.12734,-7.31157 -11.04287,-10.58764c-0.40137,-0.33568 -0.38979,-1.00016 -0.37939,-1.48602c0.02637,-1.2447 2.58369,-0.88953 3.24331,-0.4485c2.59512,2.55255 5.07085,5.34539 7.6793,7.89135c0.67148,0.65539 1.37021,1.27928 1.91411,1.96134c0.15396,0.47649 0.30557,0.75708 0.18369,1.22316l-0.26162,-0.10169l0.20713,-0.17011l-0.03281,-0.20953c-0.26763,0.24147 -0.3668,0.34433 -0.72759,0.44865c-0.31699,0.45715 -0.61304,0.94565 -0.78325,1.47899z" fill="#f99464"/><path d="M113.96294,103.35533l-0.00732,-12.20523c-0.00513,-2.00192 0.07734,-4.10685 -0.12627,-6.08782c-0.07778,-0.75678 -1.65498,-1.33847 -1.55801,-2.51812c0.24009,-2.92266 2.24355,-2.719 4.29316,-1.64939c0.15132,1.00997 0.21372,1.57672 0.24155,2.59314c-0.40313,0.52777 -1.12192,1.38565 -1.45078,1.8954c-0.46978,6.48123 0.28389,14.46958 -0.07295,20.92282l-0.2562,-0.31238c-0.79673,-0.03253 -0.84683,0.3896 -1.06626,1.03928c0.02871,-1.26829 0.05098,-2.40588 0.00308,-3.67769z" fill="#ba5cd0"/><path d="M70.17949,125.08797c1.10464,-0.03751 1.77715,-0.54784 2.75347,-1.09408c-0.63882,0.91664 -1.75913,1.34463 -2.84136,1.37437l-0.36958,0.25202l0.01787,0.12117c8.39312,0.45934 17.04639,-0.80382 25.46675,-0.69143c1.31089,0.01744 2.76401,-0.05553 4.05762,0.05656c-1.53896,0.55077 -5.68564,-0.00322 -6.78252,0.28586c1.60869,0.05172 3.81958,-0.0715 5.27725,0.05832c-0.44517,0.03663 -1.57368,0.10344 -1.94473,0.20498c0.48823,0.12264 0.9145,0.15751 1.23486,0.51385l-0.07134,0.13231c-0.19468,0.00322 -0.89648,-0.02022 -1.00107,0.0652c2.10586,0.10213 4.63462,-0.06711 6.59077,0.09304c-2.34873,0.29114 -8.90654,0.24381 -11.55513,0.30564c-1.18359,0.20879 -4.23018,0.16176 -5.57651,0.15736l-8.9354,-0.02667c-1.1499,0.00015 -7.76484,0.31487 -8.17881,-0.29246c0.32197,-0.45114 1.35967,-1.14961 1.85786,-1.51606z" fill="#2e369d"/><path d="M70.17949,125.08797c1.10464,-0.03751 1.77715,-0.54784 2.75347,-1.09408c-0.63882,0.91664 -1.75913,1.34463 -2.84136,1.37437l-0.36958,0.25202l0.01787,0.12117c8.39312,0.45934 17.04639,-0.80382 25.46675,-0.69143c1.31089,0.01744 2.76401,-0.05553 4.05762,0.05656c-1.53896,0.55077 -5.68564,-0.00322 -6.78252,0.28586c-6.42803,0.11487 -12.75308,0.60953 -19.17041,0.91078c-0.95391,0.04469 -2.78906,-0.15605 -3.49189,0.06447l-0.07031,0.1578c0.33765,0.29539 19.11167,0.11956 21.26323,0.2403c-1.18359,0.20879 -4.23018,0.16176 -5.57651,0.15736l-8.9354,-0.02667c-1.1499,0.00015 -7.76484,0.31487 -8.17881,-0.29246c0.32197,-0.45114 1.35967,-1.14961 1.85786,-1.51606z" fill="#0a0a3d"/><path d="M195.01172,144.24125c1.32275,-0.06535 10.83398,-0.34418 11.52832,0.1767c0.09521,0.5874 0.12305,0.35019 -0.10986,0.897c-0.50684,0.40323 -4.9043,0.31312 -5.89307,0.32542c-0.04834,3.2034 -0.01172,6.47962 -0.00879,9.68844c-0.01465,1.06668 0.66504,4.52019 -1.44287,3.74655c-0.30615,-0.87034 -0.08203,-11.62208 -0.1084,-13.45433c-1.35791,0.00791 -4.95703,0.23956 -5.97217,-0.48059c-0.19043,-0.42784 -0.18604,-0.2192 -0.03955,-0.64543c0.55957,-0.26608 1.396,-0.22769 2.04639,-0.25378z" fill="#fcfbfc"/><path d="M226.23633,144.06366c0.55371,-0.02242 0.68262,-0.05905 1.19385,0.10887c0.31641,0.49876 0.17578,12.06032 0.20068,13.57975c1.20703,0.00147 8.30566,-0.16996 8.88867,0.33407c0.1084,0.48206 0.09668,0.45715 -0.04102,0.9392l-0.37646,0.1641c-3.2373,0.14359 -6.9668,0.08059 -10.22168,0.063c0.00586,-1.53847 -0.01758,-14.63646 0.35596,-15.189z" fill="#fcfbfc"/><path d="M116.8229,29.18853c2.18174,-0.03048 4.36304,-0.07561 6.54419,-0.13553c-0.00908,1.11283 0.03984,4.61806 -0.27466,5.43375c-0.52778,0.07106 -0.66035,0.00967 -1.19487,-0.10755c-1.36128,-0.09231 -2.49771,-0.08586 -3.85928,-0.07399c-0.51021,-0.00484 -0.81284,0.09216 -1.12881,-0.17758c-0.22559,-1.2488 -0.11689,-3.58377 -0.08657,-4.93909z" fill="#e4b5cd"/><path d="M118.47495,31.46005c0.04336,-0.24308 0.04585,-0.58755 0.21021,-0.69393c0.61919,-0.40059 2.41553,-0.15253 3.18384,-0.0967l0.01377,2.31987l0.01479,1.3899c-1.36128,-0.09231 -2.49771,-0.08586 -3.85928,-0.07399c0.4563,-1.21613 0.27144,-1.58038 0.43667,-2.84515z" fill="#270317"/><path d="M118.47495,31.46005l0.09668,1.82126c0.71807,-0.09509 2.9833,-0.21084 3.31113,-0.29202l0.01479,1.3899c-1.36128,-0.09231 -2.49771,-0.08586 -3.85928,-0.07399c0.4563,-1.21613 0.27144,-1.58038 0.43667,-2.84515z" fill="#ec89ab"/><path d="M147.18164,84.62212c0.50098,0.51986 0.84521,0.99283 1.52051,1.19371l0.5625,0.41817c0.27686,0.32997 1.45898,1.49203 1.81787,1.72851c0.66797,0.72235 1.99951,2.11269 2.56201,2.85717c-0.35889,-0.17099 -0.49512,-0.24044 -0.82471,-0.46184c-0.49805,0.82125 0.31934,4.85455 1.26855,5.62115c0,0.25392 0.04541,0.2041 -0.05566,0.37949c-1.14844,-0.90755 -6.0498,-6.28577 -7.29785,-7.63069l0.10254,-0.2318l-0.15674,-0.29509c-0.46978,-0.26447 -0.64658,-0.30945 -0.91919,-0.74726c-0.1355,-0.94887 0.84302,-2.04427 1.42017,-2.83153z" fill="#73419b"/><path d="M141.1251,113.57651c0.13755,0.32279 0.36064,0.84059 0.14004,1.18331c-3.07017,4.76898 -9.91904,2.31577 -14.54897,1.61686c-1.58965,-0.24586 -3.19614,-0.36777 -4.80469,-0.36455c-0.08232,-0.51502 -0.06123,-0.54418 0.07646,-1.06038c4.79678,0.23194 9.60879,0.53773 14.41538,0.30227c1.67725,-0.0822 2.77104,-0.37934 3.99155,-1.57393l0.11587,-0.06432z" fill="url(#color-14)"/><path d="M90.86982,60.43466c1.36348,0.02916 2.42036,0.01641 3.78281,-0.05524c0.00396,1.71987 0.07515,3.50377 0.08877,5.24429l-2.07905,0.0315c-1.29785,0.03341 -2.56772,-0.00733 -3.8644,-0.03941c-0.10576,-1.93745 -0.14941,-3.17292 -0.07822,-5.11067z" fill="#ba5cd0"/><path d="M92.89497,61.76625c0.23086,0.24088 0.18018,1.26463 0.19966,1.71166l-2.81426,-0.2296c-0.19248,-0.2044 -0.33237,-0.78257 -0.12979,-0.99488c0.63662,-0.66711 1.81216,-0.26506 2.74438,-0.48718z" fill="#8f43de"/><path d="M102.86104,52.06961c1.77686,0.08366 3.61875,0.05172 5.40293,0.04396c0.05127,1.57891 0.20098,3.92809 -0.04277,5.42994c-1.78096,0.27282 -3.59106,0.16616 -5.38462,0.0718c-0.04468,-1.84851 -0.03647,-3.69776 0.02446,-5.54569z" fill="#ba5cd0"/><path d="M105.196,53.61599c0.5521,0.00894 0.61904,-0.01949 1.07344,0.25246c0.57129,0.9518 0.0334,1.47723 -0.64116,2.16661c-0.7002,0.06066 -0.54419,0.1581 -0.9917,-0.16059c-0.38057,-0.81437 -0.09316,-1.67533 0.55942,-2.25848z" fill="#a434b0"/><path d="M99.71719,42.41238c1.79912,0.08557 3.52544,0.017 5.32354,-0.04821l-0.00161,4.65572c-1.8394,0.03766 -3.67925,0.04088 -5.5188,0.00996c0.00264,-1.01144 -0.01084,-3.74421 0.19687,-4.61748z" fill="#d57ae8"/><path d="M101.06616,43.68038c0.94351,0.0107 1.68384,-0.13099 2.31123,0.50784c0.26777,0.53407 0.19482,0.94975 0.18237,1.55694l-2.64727,-0.05099c0.00527,-0.79561 0.04834,-1.22214 0.15366,-2.01379z" fill="#4b1390"/><path d="M162.73975,144.13253c0.55078,-0.00747 0.91113,-0.06403 1.40771,0.16161c0.34131,1.11122 0.18164,13.01125 0.12891,14.87354c-0.58594,0.07766 -0.73096,0.12894 -1.29346,0.01026c-0.50684,-0.64616 -0.2373,-13.01784 -0.24316,-15.0454z" fill="#fcfbfc"/><path d="M188.11377,144.18996c0.50391,-0.01524 0.87598,-0.08733 1.30371,0.15077c0.13916,0.69217 0.07031,3.20926 0.07324,4.05029c0.02783,3.56487 -0.00439,7.1312 -0.10107,10.6946c-0.47607,0.04103 -1.021,0.12161 -1.38721,-0.12454c-0.15381,-1.45496 -0.06152,-3.77293 -0.06592,-5.33338c-0.00732,-3.14142 -0.00293,-6.30189 0.17725,-9.43774z" fill="#fcfbfc"/><path d="M112.16455,45.47028c1.57134,-0.10593 3.15498,-0.05729 4.73013,-0.03443c-0.11748,1.29085 -0.05815,3.14889 -0.06899,4.49293c-1.61777,0.06183 -3.16084,0.04762 -4.77993,0.03311c-0.05259,-1.23503 -0.1478,-3.32618 0.1188,-4.49161z" fill="#ba5cd0"/><path d="M114.45674,46.36978c0.44019,-0.00718 0.51006,-0.03267 0.90103,0.19004c0.50874,0.75957 0.52603,1.32631 -0.24961,1.92397c-0.42773,0.01788 -0.67339,0.00645 -1.10171,-0.023c-0.44766,-0.2866 -0.31011,-0.09348 -0.45249,-0.57979c0.14868,-0.6548 0.4834,-0.97979 0.90278,-1.51122z" fill="#a434b0"/><path d="M108.98291,115.5021c0.57729,-0.42184 0.89941,-0.37876 1.59873,-0.52088c0.58813,-0.96514 -0.33018,-1.90595 -0.64951,-2.84603c-0.46729,-1.37569 -0.08247,-2.46302 0.54946,-3.67666c0.15278,-0.29334 -0.08994,-0.58198 -0.23218,-0.81671c0.62227,-1.32236 2.4145,-1.74214 3.51577,-3.18889c-0.00762,-0.4844 0.00396,-0.5096 0.15864,-0.98155l0.03911,-0.11604c0.0479,1.27181 0.02563,2.4094 -0.00308,3.67769c-0.57466,1.2447 -2.58281,1.5858 -2.49873,3.64179c-0.23965,2.18317 0.86309,2.34317 1.27544,4.48268l-1.16001,0.09758c-0.77285,0.08103 -1.84189,0.22418 -2.59365,0.24704z" fill="#240f60"/><path d="M129.28184,77.39495c1.96743,1.75679 4.36787,3.9341 6.14312,5.83902c-1.43965,0.17758 -2.48145,0.31238 -3.94878,0.2781c-1.51055,-1.04089 -2.39912,-2.10126 -3.60879,-3.44765c0.17021,-0.53334 0.46626,-1.02184 0.78325,-1.47899c0.36079,-0.10432 0.45996,-0.20718 0.72759,-0.44865l0.03281,0.20953l-0.20713,0.17011l0.26162,0.10169c0.12188,-0.46608 -0.02974,-0.74667 -0.18369,-1.22316z" fill="url(#color-15)"/><path d="M86.12769,46.16655c1.64487,-0.04205 2.78525,0.00366 4.40786,0.16147c0.01699,1.44998 -0.00059,2.9001 -0.05259,4.3492l-4.42324,0.00879c-0.07676,-1.63005 -0.0145,-2.88325 0.06797,-4.51945z" fill="#d57ae8"/><path d="M88.70991,47.50415c0.11953,0.0044 0.30322,0.05612 0.42803,0.08454c0.18413,0.82536 -0.2502,1.61774 -1.004,1.99181c-0.6416,-0.45568 -1.03154,-0.86111 -0.71294,-1.65877c0.56074,-0.4255 0.51299,-0.30623 1.28892,-0.41759z" fill="#4b1390"/><path d="M113.50591,36.69614c0.64087,-0.05128 1.68911,-0.0252 2.36191,-0.02916c0.22749,1.55767 0.11733,2.48618 -0.04893,4.0226l-1.94766,0.04147c-0.91743,0.00703 -1.76748,-0.08293 -2.67803,-0.16557c-0.03281,-1.22756 -0.01553,-2.54566 -0.0186,-3.78011z" fill="#bc78ba"/><path d="M81.76479,99.30972c0.03105,4.40898 0.03472,8.81795 0.01113,13.22693c-0.01157,2.21511 0.06094,5.24195 -0.15293,7.35611l-1.83237,0.09539l-0.25137,-0.05172l-0.06812,-0.08454c0.4582,-0.01465 0.48369,-0.00923 0.92021,-0.12879c0.60337,-2.03504 0.44033,-12.66575 0.57129,-15.52072c0.04146,-0.90506 -0.09478,-3.41556 0.18442,-4.16385c0.18252,-0.25246 0.40986,-0.49436 0.61772,-0.7288z" fill="#240f60"/><path d="M106.84453,28.63966c1.28892,-0.06374 2.5248,-0.03868 3.81343,-0.023c0.01172,0.99459 0.08555,3.27637 -0.14912,4.09776l-0.31597,0.10564l-3.84785,-0.00777c-0.01509,-0.97144 -0.11792,-3.22552 0.10225,-4.01307z" fill="#d395db"/><path d="M107.80986,29.89696c0.80977,-0.03927 1.17993,-0.16616 1.78271,0.24352c0.19146,0.51927 0.04058,1.00396 -0.05391,1.57042c-0.88872,0.00454 -1.552,0.15985 -2.00552,-0.68982c0.00176,-0.56264 0.00762,-0.63253 0.27671,-1.12411z" fill="#460045"/><path d="M206.36719,117.01508c2.47119,-0.49759 11.00537,-1.04807 13.12354,0.35927c0.2417,0.16235 0.48193,0.32923 0.71777,0.50081c-0.2915,0.11912 -0.54053,0.25128 -0.84961,0.2655c-0.32373,-0.21084 -0.55664,-0.31927 -0.95068,-0.32791c-5.25732,-0.11531 -10.59082,0.33876 -15.84668,0.12689c0.90088,-0.19238 3.60938,0.07458 4.04443,-0.44718z" fill="#2e369d"/><path d="M126.85532,94.84126c-0.05391,-1.71415 0.1437,-3.53468 2.73911,-2.89893c0.97515,0.23883 1.529,1.24411 1.90679,2.1439c-0.02944,0.61275 0.0208,1.26609 -0.29795,1.75108c-0.44355,0.31824 -0.92886,0.26198 -1.50044,0.28777c-1.58203,-0.00557 -1.81567,-0.08645 -2.84751,-1.28382z" fill="#656ee2"/><path d="M100.4814,87.82845c-0.02139,-0.62872 -0.12129,-1.51005 0.12612,-2.10683c0.57466,-1.3858 2.62207,-1.67606 3.66826,-0.71473c0.43872,0.40323 0.19629,2.20236 0.18398,2.86713c-0.54653,0.51268 -1.24233,1.05276 -1.40903,1.78888l-0.95435,0.05099c-0.32329,-0.71019 -1.04619,-1.32822 -1.61499,-1.88544z" fill="#8f43de"/><path d="M122.25894,51.34887l0.58652,-0.05172l0.20859,0.23209c0.12993,1.10594 -0.10752,2.67284 -0.22207,3.83359l-2.98535,0.04571l-0.66533,-0.0737c-0.42876,-0.47473 -0.30762,-2.93409 -0.35098,-3.73586c1.12544,-0.06242 2.30039,-0.1663 3.42861,-0.25011z" fill="#d57ae8"/><path d="M120.32725,52.75093c0.66841,0.0104 0.74106,-0.09436 1.25625,0.2296c0.15425,0.44894 -0.00205,0.76015 -0.13843,1.23327c-0.50083,0.19517 -0.65654,0.20029 -1.08164,-0.08777c-0.20508,-0.54726 -0.11689,-0.7984 -0.03618,-1.3751z" fill="#a434b0"/><path d="M93.55342,32.28804c1.21831,-0.05275 2.16548,-0.01421 3.37427,0.03985c0.04058,0.97671 0.39419,3.21395 -0.57568,3.60853c-1.01895,0.11795 -2.2749,0.10154 -3.31772,0.11634c-0.01216,-0.85275 -0.10415,-2.90054 0.11089,-3.58758z" fill="#bc78ba"/><path d="M94.35454,33.37142c0.773,0.01289 1.12148,-0.07854 1.5895,0.60015c0.00718,0.56645 -0.04687,0.594 -0.39214,1.08016l-0.3605,0.17934c-0.48018,-0.08059 -0.26235,0.01538 -0.64746,-0.3537c-0.25664,-0.60924 -0.21196,-0.86243 -0.1894,-1.50595z" fill="#4b1390"/><path d="M87.95947,99.91295c-0.45146,-1.20953 -1.73394,-2.34918 -1.23252,-3.86597c0.30498,-0.92265 2.24502,-0.95752 2.95811,-0.55986c1.71592,1.19898 -0.83584,3.76897 -1.10054,4.95916l-0.13696,-0.37187l-0.14956,0.05788l-0.14663,1.12675c-0.05874,-0.44938 -0.12275,-0.89818 -0.19189,-1.34609z" fill="#656ee2"/><path d="M176.49756,110.7655c0.25488,-0.18169 4.22607,-0.22051 4.85449,-0.30198c0.64893,-0.0841 0.78369,-0.1641 1.41211,-0.40777c0.34863,0.88792 0.29883,0.96133 0.38232,1.90624c-2.83887,0.21627 -8.49316,-0.0526 -11.57666,-0.09758l0.25781,-0.10051c0.02344,-0.2633 0.00732,-0.14931 -0.22412,-0.46638c0.46289,-0.54213 2.42871,1.05525 4.89404,-0.53202z" fill="#73419b"/><path d="M107.29102,70.83636c1.1168,-0.01128 2.23359,0.00176 3.34966,0.03941c0.02227,1.03898 0.18779,2.56222 -0.38716,3.38406c-1.29536,0.11399 -1.82842,0.08791 -3.11309,0.00147c-0.03999,-0.7792 -0.26953,-2.93101 0.15059,-3.42494z" fill="url(#color-16)"/><path d="M109.23208,71.40062c0.29077,0.11106 0.1938,0.06227 0.43682,0.26301c0.24785,0.87034 0.25488,1.43606 -0.68364,1.69174c-0.45103,-0.38462 -0.58564,-0.51341 -0.63311,-1.11708c0.22632,-0.47898 0.41162,-0.53466 0.87993,-0.83766z" fill="#4b1390"/><path d="M137.88706,104.999c1.04883,-0.13319 2.2853,-0.4655 3.11162,0.10051c0.25811,0.41905 0.21152,0.52293 0.18809,1.04323c-0.04014,1.982 -0.02549,4.07271 -0.12041,6.04152l0.05874,1.39225l-0.61436,0.03927l-0.11587,0.06432c0.00205,-0.45803 -0.29282,-2.17086 -0.35771,-2.81277c-0.1585,-1.56661 -0.20068,-2.9316 -0.24521,-4.50876c-0.63618,-0.56323 -1.19326,-0.90052 -1.90488,-1.35957z" fill="#474b90"/><path d="M137.88706,104.999c1.04883,-0.13319 2.2853,-0.4655 3.11162,0.10051c0.25811,0.41905 0.21152,0.52293 0.18809,1.04323c-0.06299,0.41715 -0.06431,0.74462 -0.30835,1.07972l-0.28975,0.03941c-0.36855,-0.35019 -0.48472,-0.49715 -0.79673,-0.9033c-0.63618,-0.56323 -1.19326,-0.90052 -1.90488,-1.35957z" fill="#5a58bb"/><path d="M140.51074,113.61578c-0.00278,-0.62506 -0.13257,-1.01188 0.1834,-1.40031l0.37222,-0.03121l0.05874,1.39225z" fill="#a18fee"/><path d="M102.79116,33.90681c0.31157,-0.04762 1.45986,-0.07985 1.82842,-0.09832c0.01919,1.19122 0.39609,2.13145 -0.01084,3.17585c-0.44399,0.33099 -0.41528,0.217 -1.09746,0.23927c-0.65771,-0.02183 -1.54116,-0.13202 -2.2147,-0.19722c-0.05815,-0.89891 -0.27407,-2.03738 0.10371,-2.78581c0.55444,-0.3852 0.6561,-0.27751 1.39087,-0.33378z" fill="#ba5cd0"/><path d="M99.52163,62.62765c1.0043,-0.07238 2.16504,-0.05919 3.18267,-0.07194c-0.00366,0.93305 0.1248,2.64837 -0.39419,3.32237c-1.08486,0.07341 -1.88335,0.03912 -2.96323,-0.00264c-0.05669,-0.82389 -0.32212,-2.67196 0.17476,-3.24779z" fill="#ba5cd0"/><path d="M131.50122,94.08623c0.18193,0.87693 0.09683,2.99387 0.08921,3.93571c-0.02783,3.41673 -0.07207,4.79872 2.8626,6.85119l0.14766,0.10271c0.68555,0.0548 1.21055,0.08674 1.89888,0.08821l-0.77725,1.15869c-1.99966,-1.06594 -3.99302,-1.93101 -4.73877,-4.25059c-0.55093,-1.71401 0.07515,-4.3278 -0.63237,-5.66496l-0.64834,-0.18213c0.57158,-0.02579 1.05688,0.03048 1.50044,-0.28777c0.31875,-0.48499 0.26851,-1.13832 0.29795,-1.75108z" fill="url(#color-17)"/><path d="M88.07798,120.02448c1.68618,-0.13846 2.37656,-0.18286 3.84272,-1.17334c0.55459,-0.37466 0.9022,-0.68059 1.5312,-0.91327l0.34907,0.23048c-0.88696,3.26992 -4.60942,3.63549 -7.41519,3.17761c0.77227,-0.0463 2.04653,-0.17246 2.10703,-1.14316l-0.30967,0.03912z" fill="url(#color-18)"/><path d="M81.623,119.89276c1.59155,-0.01055 4.90063,-0.0085 6.45498,0.13172l0.10518,0.21744l0.30967,-0.03912c-0.0605,0.9707 -1.33477,1.09686 -2.10703,1.14316c-1.53267,0.04205 -4.2082,-0.58272 -5.94771,-0.75839l0.18384,-0.16073l-0.05552,-0.21143l-0.77578,-0.22725z" fill="#656ee2"/><path d="M122.22056,96.3182c0.10269,0.03971 0.29985,0.17216 0.40283,0.23575c0.69565,1.26287 0.67427,7.12255 0.54009,8.76052c-0.70298,-0.29465 -0.92871,-0.75605 -1.02554,-1.49291c-0.31523,-2.40149 -0.08921,-5.11199 0.08262,-7.50336z" fill="#474b90"/><path d="M144.62974,95.28947l0.21606,-0.24044c0.34175,0.12132 0.46626,0.28733 0.72451,0.53935l0.19746,0.00586c2.97979,2.60471 4.90166,5.17484 7.53398,8.09355l-0.69727,0.08747c-2.74805,-2.63988 -5.23975,-5.68591 -7.97476,-8.48579z" fill="#240f60"/><path d="M81.14707,100.03852c0.09756,-2.12441 -1.35249,-1.65848 -1.20776,-3.22919c0.40796,-0.72631 1.30767,-1.20206 2.07993,-0.96777c1.86694,0.56631 0.06226,2.56955 -0.25444,3.46816c-0.20786,0.23443 -0.43521,0.47634 -0.61772,0.7288z" fill="#2e369d"/><path d="M209.06689,92.20944c0.42773,0.03971 0.46729,0.00396 0.79102,0.2929c0.53906,1.22888 0.20068,7.26233 -0.02783,8.75436c-0.52002,-0.61422 -0.84521,-7.89032 -0.76318,-9.04726z" fill="#240f60"/><path d="M201.43066,96.15775c1.26709,-0.11399 4.21729,-0.22769 5.33643,0.2189l0.1582,0.22227c-0.6958,0.87063 -4.43115,0.85656 -5.57373,0.86755l-0.1626,-0.09641c-0.10547,-0.42975 0.08643,-0.78711 0.2417,-1.21232z" fill="#240f60"/><path d="M201.43066,96.15775c0.58594,0.0841 0.78369,0.00571 1.14697,0.35868c-0.19775,0.48103 -0.73682,0.71971 -1.22607,0.95004l-0.1626,-0.09641c-0.10547,-0.42975 0.08643,-0.78711 0.2417,-1.21232z" fill="#2e369d"/><path d="M99.5647,71.30538c1.11372,0.07883 1.2501,0.5033 1.90898,1.34961c-0.37866,0.82975 -0.55254,1.15723 -1.1729,1.8072c-0.90234,-0.21348 -1.68589,-0.34476 -1.92935,-1.32206c0.09346,-0.86858 0.58125,-1.24162 1.19326,-1.83474z" fill="#73419b"/><path d="M110.80562,61.19115c1.93916,1.12895 1.96245,2.03313 0.15688,3.17922c-1.10391,-0.06828 -1.60151,-1.22052 -1.21465,-2.14712c0.20947,-0.50154 0.64028,-0.74916 1.05776,-1.0321z" fill="#8f43de"/><path d="M215.31445,101.4904c-0.11865,-0.4614 -0.30762,-1.05891 -0.30762,-1.54697c-0.00146,-0.98536 1.23926,-2.11533 2.01709,-1.05657c0.39111,0.53187 0.03955,1.57305 -0.10986,2.18654c-0.52441,0.36997 -0.95215,0.41085 -1.59961,0.417z" fill="#2e369d"/><path d="M220.2085,117.87516c0.97852,0.52924 4.48682,3.25776 4.68018,4.32253l-0.17139,0.14887c-0.37646,-0.14169 -5.05957,-3.81146 -5.3584,-4.2059c0.30908,-0.01421 0.55811,-0.14637 0.84961,-0.2655z" fill="#240f60"/><path d="M112.8063,55.05571c0.4853,0.03062 0.83921,0.06813 1.21172,0.42271c0.29209,0.27649 0.46084,0.65891 0.46831,1.06111c0.01348,0.67415 -0.23364,1.04836 -0.66182,1.51782c-1.90415,-0.6485 -2.23125,-1.37364 -1.01821,-3.00164z" fill="#9774c4"/><path d="M96.7355,53.47343c0.98584,0.21714 1.65806,0.70784 1.15693,1.76265c-0.55371,0.40118 -0.30454,0.28484 -1.08237,0.35649c-0.6501,-0.09392 -1.03228,-0.11092 -1.45767,-0.5811c-0.23569,-0.99737 0.57744,-1.2469 1.38311,-1.53804z" fill="#9774c4"/><path d="M215.31445,101.4904c0.64746,-0.00615 1.0752,-0.04703 1.59961,-0.417c-0.44092,2.57673 -0.07178,4.80341 -0.37793,7.23933c0.00439,-1.28866 0.15234,-4.2144 -0.3208,-5.22862l-0.24609,-0.18432l-0.15088,0.08132c-0.02197,1.81672 -0.05566,3.63329 -0.10107,5.44957c-0.28125,-2.24017 -0.03662,-4.59389 -0.40283,-6.94028z" fill="#240f60"/><path d="M148.1748,112.05899c1.4458,0.31839 1.93652,1.67459 0.82471,2.58977c-0.854,-0.39414 -1.52637,-0.88118 -1.47949,-1.90844c0.2666,-0.53715 0.11865,-0.35165 0.65479,-0.68132z" fill="#2e369d"/><path d="M197.55322,100.64453c0.41162,0.28689 0.70459,0.3537 0.73975,0.90433c-0.15234,0.35517 -0.48779,1.25173 -0.72803,1.48016c-0.18457,0.48836 -0.41895,1.41672 -1.00635,1.43635c-0.22852,-0.457 -0.13916,-0.72587 -0.07764,-1.25085c0.0835,-0.84587 0.6665,-1.79533 1.07227,-2.56999z" fill="#240f60"/><path d="M196.48096,103.21452l0.60645,-0.43063c0.375,0.08249 0.22705,-0.00747 0.47754,0.24513c-0.18457,0.48836 -0.41895,1.41672 -1.00635,1.43635c-0.22852,-0.457 -0.13916,-0.72587 -0.07764,-1.25085z" fill="#474b90"/><path d="M144.62974,95.28947c-0.50479,-0.35473 -1.40361,-0.94272 -1.5958,-1.50829l0.17256,-0.16835c0.93267,0.05128 2.11934,1.20221 2.56128,1.98141l-0.19746,-0.00586c-0.25825,-0.25202 -0.38276,-0.41803 -0.72451,-0.53935z" fill="#0a0a3d"/><path d="M197.55322,100.64453c0.32813,-0.49055 0.47314,-0.8359 1.01074,-1.03957l0.36914,0.04528c0.49072,0.79576 -0.10693,1.21393 -0.64014,1.89862c-0.03516,-0.55063 -0.32812,-0.61744 -0.73975,-0.90433z" fill="#0a0a3d"/><path d="M189.95654,94.16418c0.67383,0.05348 0.55957,-0.05744 1.00781,0.29143c-0.0249,0.57642 -0.08203,0.47253 -0.45703,1.03825c-0.48779,-0.14843 -0.46875,-0.12879 -0.82471,-0.48733c-0.05273,-0.53246 -0.08496,-0.32132 0.27393,-0.84235z" fill="#0a0a3d"/></g></svg></svg>